<svg width="123" height="18" viewBox="0 0 123 18" fill="none" xmlns="http://www.w3.org/2000/svg">
<path d="M7.272 14.054C6.372 14.054 5.538 13.892 4.77 13.568C4.002 13.244 3.33 12.794 2.754 12.218C2.178 11.63 1.728 10.952 1.404 10.184C1.092 9.416 0.936 8.588 0.936 7.7C0.936 6.812 1.098 5.984 1.422 5.216C1.746 4.448 2.196 3.776 2.772 3.2C3.348 2.612 4.02 2.156 4.788 1.832C5.568 1.508 6.408 1.346 7.308 1.346C8.208 1.346 9.042 1.508 9.81 1.832C10.59 2.144 11.262 2.588 11.826 3.164C12.402 3.74 12.846 4.412 13.158 5.18C13.482 5.936 13.644 6.764 13.644 7.664C13.644 8.564 13.482 9.404 13.158 10.184C12.834 10.952 12.378 11.63 11.79 12.218C11.214 12.794 10.542 13.244 9.774 13.568C9.006 13.892 8.172 14.054 7.272 14.054ZM7.254 13.388C8.07 13.388 8.82 13.244 9.504 12.956C10.188 12.656 10.788 12.248 11.304 11.732C11.832 11.216 12.24 10.61 12.528 9.914C12.816 9.206 12.96 8.456 12.96 7.664C12.96 6.86 12.816 6.116 12.528 5.432C12.252 4.748 11.856 4.148 11.34 3.632C10.836 3.116 10.236 2.72 9.54 2.444C8.856 2.156 8.112 2.012 7.308 2.012C6.492 2.012 5.736 2.156 5.04 2.444C4.344 2.732 3.738 3.14 3.222 3.668C2.718 4.184 2.322 4.784 2.034 5.468C1.746 6.152 1.602 6.896 1.602 7.7C1.602 8.492 1.746 9.236 2.034 9.932C2.322 10.616 2.718 11.222 3.222 11.75C3.738 12.266 4.338 12.668 5.022 12.956C5.718 13.244 6.462 13.388 7.254 13.388ZM7.434 11.444C6.714 11.444 6.072 11.288 5.508 10.976C4.944 10.652 4.5 10.208 4.176 9.644C3.852 9.08 3.69 8.432 3.69 7.7C3.69 6.968 3.852 6.32 4.176 5.756C4.5 5.192 4.944 4.754 5.508 4.442C6.072 4.118 6.714 3.956 7.434 3.956C8.046 3.956 8.598 4.082 9.09 4.334C9.594 4.574 9.996 4.91 10.296 5.342L9.522 5.918C9.27 5.57 8.964 5.312 8.604 5.144C8.244 4.976 7.848 4.892 7.416 4.892C6.9 4.892 6.438 5.012 6.03 5.252C5.634 5.48 5.316 5.804 5.076 6.224C4.836 6.644 4.716 7.136 4.716 7.7C4.716 8.264 4.836 8.756 5.076 9.176C5.316 9.596 5.634 9.926 6.03 10.166C6.438 10.394 6.9 10.508 7.416 10.508C7.848 10.508 8.244 10.424 8.604 10.256C8.964 10.088 9.27 9.83 9.522 9.482L10.296 10.04C9.996 10.484 9.594 10.832 9.09 11.084C8.598 11.324 8.046 11.444 7.434 11.444ZM24.3236 14V9.32L24.6296 10.148L19.2836 1.4H20.7056L25.4036 9.086H24.6476L29.3456 1.4H30.6776L25.3316 10.148L25.6376 9.32V14H24.3236ZM35.4151 14.09C34.4311 14.09 33.5671 13.886 32.8231 13.478C32.0791 13.058 31.4971 12.488 31.0771 11.768C30.6571 11.036 30.4471 10.202 30.4471 9.266C30.4471 8.33 30.6451 7.502 31.0411 6.782C31.4491 6.062 32.0011 5.498 32.6971 5.09C33.4051 4.67 34.1971 4.46 35.0731 4.46C35.9611 4.46 36.7471 4.664 37.4311 5.072C38.1271 5.468 38.6731 6.032 39.0691 6.764C39.4651 7.484 39.6631 8.318 39.6631 9.266C39.6631 9.326 39.6571 9.392 39.6451 9.464C39.6451 9.524 39.6451 9.59 39.6451 9.662H31.4191V8.708H38.9611L38.4571 9.086C38.4571 8.402 38.3071 7.796 38.0071 7.268C37.7191 6.728 37.3231 6.308 36.8191 6.008C36.3151 5.708 35.7331 5.558 35.0731 5.558C34.4251 5.558 33.8431 5.708 33.3271 6.008C32.8111 6.308 32.4091 6.728 32.1211 7.268C31.8331 7.808 31.6891 8.426 31.6891 9.122V9.32C31.6891 10.04 31.8451 10.676 32.1571 11.228C32.4811 11.768 32.9251 12.194 33.4891 12.506C34.0651 12.806 34.7191 12.956 35.4511 12.956C36.0271 12.956 36.5611 12.854 37.0531 12.65C37.5571 12.446 37.9891 12.134 38.3491 11.714L39.0691 12.542C38.6491 13.046 38.1211 13.43 37.4851 13.694C36.8611 13.958 36.1711 14.09 35.4151 14.09ZM54.0724 4.46C54.8404 4.46 55.5064 4.61 56.0704 4.91C56.6464 5.198 57.0904 5.642 57.4024 6.242C57.7264 6.842 57.8884 7.598 57.8884 8.51V14H56.6104V8.636C56.6104 7.64 56.3704 6.89 55.8904 6.386C55.4224 5.87 54.7564 5.612 53.8924 5.612C53.2444 5.612 52.6804 5.75 52.2004 6.026C51.7324 6.29 51.3664 6.68 51.1024 7.196C50.8504 7.7 50.7244 8.312 50.7244 9.032V14H49.4464V8.636C49.4464 7.64 49.2064 6.89 48.7264 6.386C48.2464 5.87 47.5744 5.612 46.7104 5.612C46.0744 5.612 45.5164 5.75 45.0364 6.026C44.5564 6.29 44.1844 6.68 43.9204 7.196C43.6684 7.7 43.5424 8.312 43.5424 9.032V14H42.2644V4.55H43.4884V7.106L43.2904 6.656C43.5784 5.972 44.0404 5.438 44.6764 5.054C45.3244 4.658 46.0864 4.46 46.9624 4.46C47.8864 4.46 48.6724 4.694 49.3204 5.162C49.9684 5.618 50.3884 6.308 50.5804 7.232L50.0764 7.034C50.3524 6.266 50.8384 5.648 51.5344 5.18C52.2424 4.7 53.0884 4.46 54.0724 4.46ZM66.3352 14V1.4H71.4652C72.8092 1.4 73.9852 1.67 74.9932 2.21C76.0132 2.738 76.8052 3.476 77.3692 4.424C77.9332 5.372 78.2152 6.464 78.2152 7.7C78.2152 8.936 77.9332 10.028 77.3692 10.976C76.8052 11.924 76.0132 12.668 74.9932 13.208C73.9852 13.736 72.8092 14 71.4652 14H66.3352ZM67.6672 12.848H71.3932C72.5092 12.848 73.4752 12.632 74.2912 12.2C75.1192 11.756 75.7612 11.15 76.2172 10.382C76.6732 9.602 76.9012 8.708 76.9012 7.7C76.9012 6.68 76.6732 5.786 76.2172 5.018C75.7612 4.25 75.1192 3.65 74.2912 3.218C73.4752 2.774 72.5092 2.552 71.3932 2.552H67.6672V12.848ZM80.9363 14V4.55H82.2143V14H80.9363ZM81.5843 2.462C81.3203 2.462 81.0983 2.372 80.9183 2.192C80.7383 2.012 80.6483 1.796 80.6483 1.544C80.6483 1.292 80.7383 1.082 80.9183 0.913999C81.0983 0.733999 81.3203 0.643999 81.5843 0.643999C81.8483 0.643999 82.0703 0.727999 82.2503 0.895999C82.4303 1.064 82.5203 1.274 82.5203 1.526C82.5203 1.79 82.4303 2.012 82.2503 2.192C82.0823 2.372 81.8603 2.462 81.5843 2.462ZM89.8023 17.582C88.9383 17.582 88.1103 17.456 87.3183 17.204C86.5263 16.952 85.8843 16.592 85.3923 16.124L86.0403 15.152C86.4843 15.548 87.0303 15.86 87.6783 16.088C88.3383 16.328 89.0343 16.448 89.7663 16.448C90.9663 16.448 91.8483 16.166 92.4123 15.602C92.9763 15.05 93.2583 14.186 93.2583 13.01V10.652L93.4383 9.032L93.3123 7.412V4.55H94.5363V12.848C94.5363 14.48 94.1343 15.674 93.3303 16.43C92.5383 17.198 91.3623 17.582 89.8023 17.582ZM89.5683 13.64C88.6683 13.64 87.8583 13.448 87.1383 13.064C86.4183 12.668 85.8483 12.122 85.4283 11.426C85.0203 10.73 84.8163 9.932 84.8163 9.032C84.8163 8.132 85.0203 7.34 85.4283 6.656C85.8483 5.96 86.4183 5.42 87.1383 5.036C87.8583 4.652 88.6683 4.46 89.5683 4.46C90.4083 4.46 91.1643 4.634 91.8363 4.982C92.5083 5.33 93.0423 5.846 93.4383 6.53C93.8343 7.214 94.0323 8.048 94.0323 9.032C94.0323 10.016 93.8343 10.85 93.4383 11.534C93.0423 12.218 92.5083 12.74 91.8363 13.1C91.1643 13.46 90.4083 13.64 89.5683 13.64ZM89.6943 12.506C90.3903 12.506 91.0083 12.362 91.5483 12.074C92.0883 11.774 92.5143 11.366 92.8263 10.85C93.1383 10.322 93.2943 9.716 93.2943 9.032C93.2943 8.348 93.1383 7.748 92.8263 7.232C92.5143 6.716 92.0883 6.314 91.5483 6.026C91.0083 5.726 90.3903 5.576 89.6943 5.576C89.0103 5.576 88.3923 5.726 87.8403 6.026C87.3003 6.314 86.8743 6.716 86.5623 7.232C86.2623 7.748 86.1123 8.348 86.1123 9.032C86.1123 9.716 86.2623 10.322 86.5623 10.85C86.8743 11.366 87.3003 11.774 87.8403 12.074C88.3923 12.362 89.0103 12.506 89.6943 12.506ZM98.0925 14V4.55H99.3705V14H98.0925ZM98.7405 2.462C98.4765 2.462 98.2545 2.372 98.0745 2.192C97.8945 2.012 97.8045 1.796 97.8045 1.544C97.8045 1.292 97.8945 1.082 98.0745 0.913999C98.2545 0.733999 98.4765 0.643999 98.7405 0.643999C99.0045 0.643999 99.2265 0.727999 99.4065 0.895999C99.5865 1.064 99.6765 1.274 99.6765 1.526C99.6765 1.79 99.5865 2.012 99.4065 2.192C99.2385 2.372 99.0165 2.462 98.7405 2.462ZM105.915 14.09C105.027 14.09 104.343 13.85 103.863 13.37C103.383 12.89 103.143 12.212 103.143 11.336V2.462H104.421V11.264C104.421 11.816 104.559 12.242 104.835 12.542C105.123 12.842 105.531 12.992 106.059 12.992C106.623 12.992 107.091 12.83 107.463 12.506L107.913 13.424C107.661 13.652 107.355 13.82 106.995 13.928C106.647 14.036 106.287 14.09 105.915 14.09ZM101.451 5.612V4.55H107.301V5.612H101.451ZM116.161 14V11.912L116.107 11.57V8.078C116.107 7.274 115.879 6.656 115.423 6.224C114.979 5.792 114.313 5.576 113.425 5.576C112.813 5.576 112.231 5.678 111.679 5.882C111.127 6.086 110.659 6.356 110.275 6.692L109.699 5.738C110.179 5.33 110.755 5.018 111.427 4.802C112.099 4.574 112.807 4.46 113.551 4.46C114.775 4.46 115.717 4.766 116.377 5.378C117.049 5.978 117.385 6.896 117.385 8.132V14H116.161ZM112.903 14.09C112.195 14.09 111.577 13.976 111.049 13.748C110.533 13.508 110.137 13.184 109.861 12.776C109.585 12.356 109.447 11.876 109.447 11.336C109.447 10.844 109.561 10.4 109.789 10.004C110.029 9.596 110.413 9.272 110.941 9.032C111.481 8.78 112.201 8.654 113.101 8.654H116.359V9.608H113.137C112.225 9.608 111.589 9.77 111.229 10.094C110.881 10.418 110.707 10.82 110.707 11.3C110.707 11.84 110.917 12.272 111.337 12.596C111.757 12.92 112.345 13.082 113.101 13.082C113.821 13.082 114.439 12.92 114.955 12.596C115.483 12.26 115.867 11.78 116.107 11.156L116.395 12.038C116.155 12.662 115.735 13.16 115.135 13.532C114.547 13.904 113.803 14.09 112.903 14.09ZM120.856 14V0.643999H122.134V14H120.856Z" fill="white"/>
</svg>
