<svg width="103" height="15" viewBox="0 0 103 15" fill="none" xmlns="http://www.w3.org/2000/svg">
<path d="M7.272 14.054C6.372 14.054 5.538 13.892 4.77 13.568C4.002 13.244 3.33 12.794 2.754 12.218C2.178 11.63 1.728 10.952 1.404 10.184C1.092 9.416 0.936 8.588 0.936 7.7C0.936 6.812 1.098 5.984 1.422 5.216C1.746 4.448 2.196 3.776 2.772 3.2C3.348 2.612 4.02 2.156 4.788 1.832C5.568 1.508 6.408 1.346 7.308 1.346C8.208 1.346 9.042 1.508 9.81 1.832C10.59 2.144 11.262 2.588 11.826 3.164C12.402 3.74 12.846 4.412 13.158 5.18C13.482 5.936 13.644 6.764 13.644 7.664C13.644 8.564 13.482 9.404 13.158 10.184C12.834 10.952 12.378 11.63 11.79 12.218C11.214 12.794 10.542 13.244 9.774 13.568C9.006 13.892 8.172 14.054 7.272 14.054ZM7.254 13.388C8.07 13.388 8.82 13.244 9.504 12.956C10.188 12.656 10.788 12.248 11.304 11.732C11.832 11.216 12.24 10.61 12.528 9.914C12.816 9.206 12.96 8.456 12.96 7.664C12.96 6.86 12.816 6.116 12.528 5.432C12.252 4.748 11.856 4.148 11.34 3.632C10.836 3.116 10.236 2.72 9.54 2.444C8.856 2.156 8.112 2.012 7.308 2.012C6.492 2.012 5.736 2.156 5.04 2.444C4.344 2.732 3.738 3.14 3.222 3.668C2.718 4.184 2.322 4.784 2.034 5.468C1.746 6.152 1.602 6.896 1.602 7.7C1.602 8.492 1.746 9.236 2.034 9.932C2.322 10.616 2.718 11.222 3.222 11.75C3.738 12.266 4.338 12.668 5.022 12.956C5.718 13.244 6.462 13.388 7.254 13.388ZM7.434 11.444C6.714 11.444 6.072 11.288 5.508 10.976C4.944 10.652 4.5 10.208 4.176 9.644C3.852 9.08 3.69 8.432 3.69 7.7C3.69 6.968 3.852 6.32 4.176 5.756C4.5 5.192 4.944 4.754 5.508 4.442C6.072 4.118 6.714 3.956 7.434 3.956C8.046 3.956 8.598 4.082 9.09 4.334C9.594 4.574 9.996 4.91 10.296 5.342L9.522 5.918C9.27 5.57 8.964 5.312 8.604 5.144C8.244 4.976 7.848 4.892 7.416 4.892C6.9 4.892 6.438 5.012 6.03 5.252C5.634 5.48 5.316 5.804 5.076 6.224C4.836 6.644 4.716 7.136 4.716 7.7C4.716 8.264 4.836 8.756 5.076 9.176C5.316 9.596 5.634 9.926 6.03 10.166C6.438 10.394 6.9 10.508 7.416 10.508C7.848 10.508 8.244 10.424 8.604 10.256C8.964 10.088 9.27 9.83 9.522 9.482L10.296 10.04C9.996 10.484 9.594 10.832 9.09 11.084C8.598 11.324 8.046 11.444 7.434 11.444ZM21.3176 14V1.4H26.0336C27.1016 1.4 28.0196 1.574 28.7876 1.922C29.5556 2.258 30.1436 2.75 30.5516 3.398C30.9716 4.034 31.1816 4.808 31.1816 5.72C31.1816 6.608 30.9716 7.376 30.5516 8.024C30.1436 8.66 29.5556 9.152 28.7876 9.5C28.0196 9.836 27.1016 10.004 26.0336 10.004H22.0556L22.6496 9.392V14H21.3176ZM29.9216 14L26.6816 9.428H28.1216L31.3796 14H29.9216ZM22.6496 9.5L22.0556 8.87H25.9976C27.2576 8.87 28.2116 8.594 28.8596 8.042C29.5196 7.49 29.8496 6.716 29.8496 5.72C29.8496 4.712 29.5196 3.932 28.8596 3.38C28.2116 2.828 27.2576 2.552 25.9976 2.552H22.0556L22.6496 1.922V9.5ZM37.7994 14.108C36.8634 14.108 35.9634 13.958 35.0994 13.658C34.2474 13.346 33.5874 12.95 33.1194 12.47L33.6414 11.444C34.0854 11.876 34.6794 12.242 35.4234 12.542C36.1794 12.83 36.9714 12.974 37.7994 12.974C38.5914 12.974 39.2334 12.878 39.7254 12.686C40.2294 12.482 40.5954 12.212 40.8234 11.876C41.0634 11.54 41.1834 11.168 41.1834 10.76C41.1834 10.268 41.0394 9.872 40.7514 9.572C40.4754 9.272 40.1094 9.038 39.6534 8.87C39.1974 8.69 38.6934 8.534 38.1414 8.402C37.5894 8.27 37.0374 8.132 36.4854 7.988C35.9334 7.832 35.4234 7.628 34.9554 7.376C34.4994 7.124 34.1274 6.794 33.8394 6.386C33.5634 5.966 33.4254 5.42 33.4254 4.748C33.4254 4.124 33.5874 3.554 33.9114 3.038C34.2474 2.51 34.7574 2.09 35.4414 1.778C36.1254 1.454 37.0014 1.292 38.0694 1.292C38.7774 1.292 39.4794 1.394 40.1754 1.598C40.8714 1.79 41.4714 2.06 41.9754 2.408L41.5254 3.47C40.9854 3.11 40.4094 2.846 39.7974 2.678C39.1974 2.51 38.6154 2.426 38.0514 2.426C37.2954 2.426 36.6714 2.528 36.1794 2.732C35.6874 2.936 35.3214 3.212 35.0814 3.56C34.8534 3.896 34.7394 4.28 34.7394 4.712C34.7394 5.204 34.8774 5.6 35.1534 5.9C35.4414 6.2 35.8134 6.434 36.2694 6.602C36.7374 6.77 37.2474 6.92 37.7994 7.052C38.3514 7.184 38.8974 7.328 39.4374 7.484C39.9894 7.64 40.4934 7.844 40.9494 8.096C41.4174 8.336 41.7894 8.66 42.0654 9.068C42.3534 9.476 42.4974 10.01 42.4974 10.67C42.4974 11.282 42.3294 11.852 41.9934 12.38C41.6574 12.896 41.1414 13.316 40.4454 13.64C39.7614 13.952 38.8794 14.108 37.7994 14.108ZM48.8737 14.108C47.9377 14.108 47.0377 13.958 46.1737 13.658C45.3217 13.346 44.6617 12.95 44.1937 12.47L44.7157 11.444C45.1597 11.876 45.7537 12.242 46.4977 12.542C47.2537 12.83 48.0457 12.974 48.8737 12.974C49.6657 12.974 50.3077 12.878 50.7997 12.686C51.3037 12.482 51.6697 12.212 51.8977 11.876C52.1377 11.54 52.2577 11.168 52.2577 10.76C52.2577 10.268 52.1137 9.872 51.8257 9.572C51.5497 9.272 51.1837 9.038 50.7277 8.87C50.2717 8.69 49.7677 8.534 49.2157 8.402C48.6637 8.27 48.1117 8.132 47.5597 7.988C47.0077 7.832 46.4977 7.628 46.0297 7.376C45.5737 7.124 45.2017 6.794 44.9137 6.386C44.6377 5.966 44.4997 5.42 44.4997 4.748C44.4997 4.124 44.6617 3.554 44.9857 3.038C45.3217 2.51 45.8317 2.09 46.5157 1.778C47.1997 1.454 48.0757 1.292 49.1437 1.292C49.8517 1.292 50.5537 1.394 51.2497 1.598C51.9457 1.79 52.5457 2.06 53.0497 2.408L52.5997 3.47C52.0597 3.11 51.4837 2.846 50.8717 2.678C50.2717 2.51 49.6897 2.426 49.1257 2.426C48.3697 2.426 47.7457 2.528 47.2537 2.732C46.7617 2.936 46.3957 3.212 46.1557 3.56C45.9277 3.896 45.8137 4.28 45.8137 4.712C45.8137 5.204 45.9517 5.6 46.2277 5.9C46.5157 6.2 46.8877 6.434 47.3437 6.602C47.8117 6.77 48.3217 6.92 48.8737 7.052C49.4257 7.184 49.9717 7.328 50.5117 7.484C51.0637 7.64 51.5677 7.844 52.0237 8.096C52.4917 8.336 52.8637 8.66 53.1397 9.068C53.4277 9.476 53.5717 10.01 53.5717 10.67C53.5717 11.282 53.4037 11.852 53.0677 12.38C52.7317 12.896 52.2157 13.316 51.5197 13.64C50.8357 13.952 49.9537 14.108 48.8737 14.108ZM60.1279 14.09C59.1919 14.09 58.3519 13.886 57.6079 13.478C56.8759 13.058 56.2999 12.488 55.8799 11.768C55.4599 11.036 55.2499 10.202 55.2499 9.266C55.2499 8.318 55.4599 7.484 55.8799 6.764C56.2999 6.044 56.8759 5.48 57.6079 5.072C58.3519 4.664 59.1919 4.46 60.1279 4.46C60.9319 4.46 61.6579 4.616 62.3059 4.928C62.9539 5.24 63.4639 5.708 63.8359 6.332L62.8819 6.98C62.5579 6.5 62.1559 6.146 61.6759 5.918C61.1959 5.69 60.6739 5.576 60.1099 5.576C59.4379 5.576 58.8319 5.732 58.2919 6.044C57.7519 6.344 57.3259 6.77 57.0139 7.322C56.7019 7.874 56.5459 8.522 56.5459 9.266C56.5459 10.01 56.7019 10.658 57.0139 11.21C57.3259 11.762 57.7519 12.194 58.2919 12.506C58.8319 12.806 59.4379 12.956 60.1099 12.956C60.6739 12.956 61.1959 12.842 61.6759 12.614C62.1559 12.386 62.5579 12.038 62.8819 11.57L63.8359 12.218C63.4639 12.83 62.9539 13.298 62.3059 13.622C61.6579 13.934 60.9319 14.09 60.1279 14.09ZM71.0298 4.46C71.7978 4.46 72.4698 4.61 73.0458 4.91C73.6338 5.198 74.0898 5.642 74.4138 6.242C74.7498 6.842 74.9178 7.598 74.9178 8.51V14H73.6398V8.636C73.6398 7.64 73.3878 6.89 72.8838 6.386C72.3918 5.87 71.6958 5.612 70.7958 5.612C70.1238 5.612 69.5358 5.75 69.0318 6.026C68.5398 6.29 68.1558 6.68 67.8798 7.196C67.6158 7.7 67.4838 8.312 67.4838 9.032V14H66.2058V0.643999H67.4838V7.142L67.2318 6.656C67.5318 5.972 68.0118 5.438 68.6718 5.054C69.3318 4.658 70.1178 4.46 71.0298 4.46ZM82.2219 14.09C81.3099 14.09 80.4879 13.886 79.7559 13.478C79.0359 13.058 78.4659 12.488 78.0459 11.768C77.6259 11.036 77.4159 10.202 77.4159 9.266C77.4159 8.318 77.6259 7.484 78.0459 6.764C78.4659 6.044 79.0359 5.48 79.7559 5.072C80.4759 4.664 81.2979 4.46 82.2219 4.46C83.1579 4.46 83.9859 4.664 84.7059 5.072C85.4379 5.48 86.0079 6.044 86.4159 6.764C86.8359 7.484 87.0459 8.318 87.0459 9.266C87.0459 10.202 86.8359 11.036 86.4159 11.768C86.0079 12.488 85.4379 13.058 84.7059 13.478C83.9739 13.886 83.1459 14.09 82.2219 14.09ZM82.2219 12.956C82.9059 12.956 83.5119 12.806 84.0399 12.506C84.5679 12.194 84.9819 11.762 85.2819 11.21C85.5939 10.646 85.7499 9.998 85.7499 9.266C85.7499 8.522 85.5939 7.874 85.2819 7.322C84.9819 6.77 84.5679 6.344 84.0399 6.044C83.5119 5.732 82.9119 5.576 82.2399 5.576C81.5679 5.576 80.9679 5.732 80.4399 6.044C79.9119 6.344 79.4919 6.77 79.1799 7.322C78.8679 7.874 78.7119 8.522 78.7119 9.266C78.7119 9.998 78.8679 10.646 79.1799 11.21C79.4919 11.762 79.9119 12.194 80.4399 12.506C80.9679 12.806 81.5619 12.956 82.2219 12.956ZM93.507 14.09C92.595 14.09 91.773 13.886 91.041 13.478C90.321 13.058 89.751 12.488 89.331 11.768C88.911 11.036 88.701 10.202 88.701 9.266C88.701 8.318 88.911 7.484 89.331 6.764C89.751 6.044 90.321 5.48 91.041 5.072C91.761 4.664 92.583 4.46 93.507 4.46C94.443 4.46 95.271 4.664 95.991 5.072C96.723 5.48 97.293 6.044 97.701 6.764C98.121 7.484 98.331 8.318 98.331 9.266C98.331 10.202 98.121 11.036 97.701 11.768C97.293 12.488 96.723 13.058 95.991 13.478C95.259 13.886 94.431 14.09 93.507 14.09ZM93.507 12.956C94.191 12.956 94.797 12.806 95.325 12.506C95.853 12.194 96.267 11.762 96.567 11.21C96.879 10.646 97.035 9.998 97.035 9.266C97.035 8.522 96.879 7.874 96.567 7.322C96.267 6.77 95.853 6.344 95.325 6.044C94.797 5.732 94.197 5.576 93.525 5.576C92.853 5.576 92.253 5.732 91.725 6.044C91.197 6.344 90.777 6.77 90.465 7.322C90.153 7.874 89.997 8.522 89.997 9.266C89.997 9.998 90.153 10.646 90.465 11.21C90.777 11.762 91.197 12.194 91.725 12.506C92.253 12.806 92.847 12.956 93.507 12.956ZM100.94 14V0.643999H102.218V14H100.94Z" fill="white"/>
</svg>
