<svg width="118" height="15" viewBox="0 0 118 15" fill="none" xmlns="http://www.w3.org/2000/svg">
<path d="M7.272 14.054C6.372 14.054 5.538 13.892 4.77 13.568C4.002 13.244 3.33 12.794 2.754 12.218C2.178 11.63 1.728 10.952 1.404 10.184C1.092 9.416 0.936 8.588 0.936 7.7C0.936 6.812 1.098 5.984 1.422 5.216C1.746 4.448 2.196 3.776 2.772 3.2C3.348 2.612 4.02 2.156 4.788 1.832C5.568 1.508 6.408 1.346 7.308 1.346C8.208 1.346 9.042 1.508 9.81 1.832C10.59 2.144 11.262 2.588 11.826 3.164C12.402 3.74 12.846 4.412 13.158 5.18C13.482 5.936 13.644 6.764 13.644 7.664C13.644 8.564 13.482 9.404 13.158 10.184C12.834 10.952 12.378 11.63 11.79 12.218C11.214 12.794 10.542 13.244 9.774 13.568C9.006 13.892 8.172 14.054 7.272 14.054ZM7.254 13.388C8.07 13.388 8.82 13.244 9.504 12.956C10.188 12.656 10.788 12.248 11.304 11.732C11.832 11.216 12.24 10.61 12.528 9.914C12.816 9.206 12.96 8.456 12.96 7.664C12.96 6.86 12.816 6.116 12.528 5.432C12.252 4.748 11.856 4.148 11.34 3.632C10.836 3.116 10.236 2.72 9.54 2.444C8.856 2.156 8.112 2.012 7.308 2.012C6.492 2.012 5.736 2.156 5.04 2.444C4.344 2.732 3.738 3.14 3.222 3.668C2.718 4.184 2.322 4.784 2.034 5.468C1.746 6.152 1.602 6.896 1.602 7.7C1.602 8.492 1.746 9.236 2.034 9.932C2.322 10.616 2.718 11.222 3.222 11.75C3.738 12.266 4.338 12.668 5.022 12.956C5.718 13.244 6.462 13.388 7.254 13.388ZM7.434 11.444C6.714 11.444 6.072 11.288 5.508 10.976C4.944 10.652 4.5 10.208 4.176 9.644C3.852 9.08 3.69 8.432 3.69 7.7C3.69 6.968 3.852 6.32 4.176 5.756C4.5 5.192 4.944 4.754 5.508 4.442C6.072 4.118 6.714 3.956 7.434 3.956C8.046 3.956 8.598 4.082 9.09 4.334C9.594 4.574 9.996 4.91 10.296 5.342L9.522 5.918C9.27 5.57 8.964 5.312 8.604 5.144C8.244 4.976 7.848 4.892 7.416 4.892C6.9 4.892 6.438 5.012 6.03 5.252C5.634 5.48 5.316 5.804 5.076 6.224C4.836 6.644 4.716 7.136 4.716 7.7C4.716 8.264 4.836 8.756 5.076 9.176C5.316 9.596 5.634 9.926 6.03 10.166C6.438 10.394 6.9 10.508 7.416 10.508C7.848 10.508 8.244 10.424 8.604 10.256C8.964 10.088 9.27 9.83 9.522 9.482L10.296 10.04C9.996 10.484 9.594 10.832 9.09 11.084C8.598 11.324 8.046 11.444 7.434 11.444ZM19.9676 14V13.082L25.2056 7.952C25.6856 7.484 26.0456 7.076 26.2856 6.728C26.5256 6.368 26.6876 6.032 26.7716 5.72C26.8556 5.408 26.8976 5.114 26.8976 4.838C26.8976 4.106 26.6456 3.53 26.1416 3.11C25.6496 2.69 24.9176 2.48 23.9456 2.48C23.2016 2.48 22.5416 2.594 21.9656 2.822C21.4016 3.05 20.9156 3.404 20.5076 3.884L19.5896 3.092C20.0816 2.516 20.7116 2.072 21.4796 1.76C22.2476 1.448 23.1056 1.292 24.0536 1.292C24.9056 1.292 25.6436 1.43 26.2676 1.706C26.8916 1.97 27.3716 2.36 27.7076 2.876C28.0556 3.392 28.2296 3.998 28.2296 4.694C28.2296 5.102 28.1696 5.504 28.0496 5.9C27.9416 6.296 27.7376 6.716 27.4376 7.16C27.1496 7.592 26.7236 8.084 26.1596 8.636L21.3536 13.352L20.9936 12.848H28.8056V14H19.9676ZM35.4189 14.108C34.4469 14.108 33.5829 13.856 32.8269 13.352C32.0709 12.836 31.4769 12.104 31.0449 11.156C30.6129 10.196 30.3969 9.044 30.3969 7.7C30.3969 6.356 30.6129 5.21 31.0449 4.262C31.4769 3.302 32.0709 2.57 32.8269 2.066C33.5829 1.55 34.4469 1.292 35.4189 1.292C36.3909 1.292 37.2549 1.55 38.0109 2.066C38.7669 2.57 39.3609 3.302 39.7929 4.262C40.2369 5.21 40.4589 6.356 40.4589 7.7C40.4589 9.044 40.2369 10.196 39.7929 11.156C39.3609 12.104 38.7669 12.836 38.0109 13.352C37.2549 13.856 36.3909 14.108 35.4189 14.108ZM35.4189 12.92C36.1629 12.92 36.8109 12.722 37.3629 12.326C37.9149 11.918 38.3469 11.33 38.6589 10.562C38.9709 9.782 39.1269 8.828 39.1269 7.7C39.1269 6.572 38.9709 5.624 38.6589 4.856C38.3469 4.076 37.9149 3.488 37.3629 3.092C36.8109 2.684 36.1629 2.48 35.4189 2.48C34.6989 2.48 34.0569 2.684 33.4929 3.092C32.9289 3.488 32.4909 4.076 32.1789 4.856C31.8669 5.624 31.7109 6.572 31.7109 7.7C31.7109 8.828 31.8669 9.782 32.1789 10.562C32.4909 11.33 32.9289 11.918 33.4929 12.326C34.0569 12.722 34.6989 12.92 35.4189 12.92ZM42.0809 14V13.082L47.3189 7.952C47.7989 7.484 48.1589 7.076 48.3989 6.728C48.6389 6.368 48.8009 6.032 48.8849 5.72C48.9689 5.408 49.0109 5.114 49.0109 4.838C49.0109 4.106 48.7589 3.53 48.2549 3.11C47.7629 2.69 47.0309 2.48 46.0589 2.48C45.3149 2.48 44.6549 2.594 44.0789 2.822C43.5149 3.05 43.0289 3.404 42.6209 3.884L41.7029 3.092C42.1949 2.516 42.8249 2.072 43.5929 1.76C44.3609 1.448 45.2189 1.292 46.1669 1.292C47.0189 1.292 47.7569 1.43 48.3809 1.706C49.0049 1.97 49.4849 2.36 49.8209 2.876C50.1689 3.392 50.3429 3.998 50.3429 4.694C50.3429 5.102 50.2829 5.504 50.1629 5.9C50.0549 6.296 49.8509 6.716 49.5509 7.16C49.2629 7.592 48.8369 8.084 48.2729 8.636L43.4669 13.352L43.1069 12.848H50.9189V14H42.0809ZM54.7414 14V1.94L55.3174 2.552H51.7714V1.4H56.0374V14H54.7414ZM64.8762 14V1.4H70.0062C71.3502 1.4 72.5262 1.67 73.5342 2.21C74.5542 2.738 75.3462 3.476 75.9102 4.424C76.4742 5.372 76.7562 6.464 76.7562 7.7C76.7562 8.936 76.4742 10.028 75.9102 10.976C75.3462 11.924 74.5542 12.668 73.5342 13.208C72.5262 13.736 71.3502 14 70.0062 14H64.8762ZM66.2082 12.848H69.9342C71.0502 12.848 72.0162 12.632 72.8322 12.2C73.6602 11.756 74.3022 11.15 74.7582 10.382C75.2142 9.602 75.4422 8.708 75.4422 7.7C75.4422 6.68 75.2142 5.786 74.7582 5.018C74.3022 4.25 73.6602 3.65 72.8322 3.218C72.0162 2.774 71.0502 2.552 69.9342 2.552H66.2082V12.848ZM79.4773 14V4.55H80.7553V14H79.4773ZM80.1253 2.462C79.8613 2.462 79.6393 2.372 79.4593 2.192C79.2793 2.012 79.1893 1.796 79.1893 1.544C79.1893 1.292 79.2793 1.082 79.4593 0.913999C79.6393 0.733999 79.8613 0.643999 80.1253 0.643999C80.3893 0.643999 80.6113 0.727999 80.7913 0.895999C80.9713 1.064 81.0613 1.274 81.0613 1.526C81.0613 1.79 80.9713 2.012 80.7913 2.192C80.6233 2.372 80.4013 2.462 80.1253 2.462ZM89.1353 4.46C89.9033 4.46 90.5753 4.61 91.1513 4.91C91.7393 5.198 92.1953 5.642 92.5193 6.242C92.8553 6.842 93.0233 7.598 93.0233 8.51V14H91.7453V8.636C91.7453 7.64 91.4933 6.89 90.9893 6.386C90.4973 5.87 89.8013 5.612 88.9013 5.612C88.2293 5.612 87.6413 5.75 87.1373 6.026C86.6453 6.29 86.2613 6.68 85.9853 7.196C85.7213 7.7 85.5893 8.312 85.5893 9.032V14H84.3113V4.55H85.5353V7.142L85.3373 6.656C85.6373 5.972 86.1173 5.438 86.7773 5.054C87.4373 4.658 88.2233 4.46 89.1353 4.46ZM102.397 14V11.912L102.343 11.57V8.078C102.343 7.274 102.115 6.656 101.659 6.224C101.215 5.792 100.549 5.576 99.6614 5.576C99.0494 5.576 98.4674 5.678 97.9154 5.882C97.3634 6.086 96.8954 6.356 96.5114 6.692L95.9354 5.738C96.4154 5.33 96.9914 5.018 97.6634 4.802C98.3354 4.574 99.0434 4.46 99.7874 4.46C101.011 4.46 101.953 4.766 102.613 5.378C103.285 5.978 103.621 6.896 103.621 8.132V14H102.397ZM99.1394 14.09C98.4314 14.09 97.8134 13.976 97.2854 13.748C96.7694 13.508 96.3734 13.184 96.0974 12.776C95.8214 12.356 95.6834 11.876 95.6834 11.336C95.6834 10.844 95.7974 10.4 96.0254 10.004C96.2654 9.596 96.6494 9.272 97.1774 9.032C97.7174 8.78 98.4374 8.654 99.3374 8.654H102.595V9.608H99.3734C98.4614 9.608 97.8254 9.77 97.4654 10.094C97.1174 10.418 96.9434 10.82 96.9434 11.3C96.9434 11.84 97.1534 12.272 97.5734 12.596C97.9934 12.92 98.5814 13.082 99.3374 13.082C100.057 13.082 100.675 12.92 101.191 12.596C101.719 12.26 102.103 11.78 102.343 11.156L102.631 12.038C102.391 12.662 101.971 13.16 101.371 13.532C100.783 13.904 100.039 14.09 99.1394 14.09ZM108.515 10.868L108.461 9.248L116.093 1.4H117.623L112.061 7.232L111.305 8.042L108.515 10.868ZM107.363 14V1.4H108.695V14H107.363ZM116.417 14L110.981 7.736L111.881 6.764L118.001 14H116.417Z" fill="white"/>
</svg>
